<svg xmlns="http://www.w3.org/2000/svg" viewBox="0 0 512 512">
<path fill="" d="M495.1,397.51l10.75-10.74L368,248.89l99.08-99.08a7.87,7.87,0,0,0,1.6-2.33,8.42,8.42,0,0,0,.61-1.44L487.41,85.6,512,3.74,430.14,28.33,369.7,46.49a7.47,7.47,0,0,0-1.21.49,7.77,7.77,0,0,0-2.56,1.71L242.69,171.94l-112-112-2.23-2.23-1-1L55.07,26.07h0L0,2.77,29.39,72.23l24.53,58,3.24,3.24h0l65,65,47,47L16,398.66c-.39.39-.77.78-1.13,1.19l-.19.21c-.3.34-.6.69-.89,1l0,.07a32.24,32.24,0,0,0,0,40.59l0,.08c.29.35.59.69.89,1l.19.22c.36.4.74.8,1.13,1.18l55.5,55.5a32.28,32.28,0,0,0,42,3.14,33.46,33.46,0,0,0,3.63-3.14L270.28,346.58,413.53,489.83l6.11-6.11,16.55,16.55a23.78,23.78,0,0,0,33.62,0l27.69-27.69a23.8,23.8,0,0,0,0-33.62L481,422.41l6.11-6.1-31.2-31.2,13.43-13.42Zm-52.75-357,2,2L473.21,71.4l2,2-17,56.49-9.11-9.1-6-6L401,72.61l-6-6-9.1-9.1Zm-20.71,74.26-303.3,303.3L97.65,397.4,401,94.1ZM42.17,63.44l.13-.07.9-.48.63-.35.73-.4.71-.41.7-.41.76-.47.67-.42c.27-.17.53-.36.8-.54l.65-.44.84-.63.6-.44.94-.78.48-.41c.47-.41.94-.85,1.4-1.3s.89-.93,1.3-1.4l.41-.49q.41-.47.78-.93c.15-.2.29-.4.44-.59s.43-.57.63-.85l.44-.64c.18-.27.37-.54.54-.81s.28-.44.42-.65l.48-.78.39-.67c.14-.25.29-.49.42-.74s.26-.46.39-.69l.37-.68q.24-.42.45-.84a1.62,1.62,0,0,0,.1-.18l53.9,22.8c-1.76,5.4-6.69,15.35-20.47,29.13-13.61,13.61-23.66,18.58-29.16,20.4ZM161,215.81,74.87,129.67c7.57-3.41,17.8-9.86,30-22S123.55,85.21,127,77.7l105,105-52,52ZM371.48,64.63l18.73,18.72L86.91,386.65,68.19,367.93ZM106.34,489a17.49,17.49,0,0,1-2.6,2.14,17.08,17.08,0,0,1-18.92,0,16.53,16.53,0,0,1-2.6-2.14l-55.5-55.5a15.41,15.41,0,0,1-1.16-1.28l-.15-.19q-.46-.58-.87-1.2l0,0a17.11,17.11,0,0,1,0-18.72l0,0q.41-.61.87-1.2l.14-.19c.37-.44.75-.87,1.17-1.28l30.72-30.73L76.17,397.4l42.18,42.18,18.72,18.73Zm41.47-41.47-18.72-18.72,303.3-303.3,18.72,18.72ZM480,443l6.71,6.71a8.59,8.59,0,0,1,0,12.13l-27.68,27.68a8.57,8.57,0,0,1-12.14,0l-6.71-6.71L430.39,473l39.81-39.82Zm-14.48-26.69-26,26-26,26L281,335.84l26-26,26-26Zm-20.44-41.94L343.81,273.06l13.42-13.42L458.54,361Z" transform="translate(0 -2.77)"/>
                                </svg>
