<svg xmlns="http://www.w3.org/2000/svg" viewBox="0 0 380 380">
<g>
	<g>
		<path fill="" d="M352.1,150c-19.1-18.3-43.2-30.5-69.2-35.1c-7.9-14.1-18.4-26.4-31-36.4c-29.8-22.9-66.4-35.1-104-34.6
			c-37.6-0.5-74.2,11.7-104,34.6C16.7,100.2,0,130.2,0,163.4c0.1,16.8,4.3,33.3,12.4,48c8.1,14.6,19.1,27.4,32.2,37.6l-7.5,49.4
			c-0.5,3.1,1.7,6.1,4.8,6.6c1.3,0.2,2.6-0.1,3.8-0.7l49.7-29.1c8,2.4,16.1,4.3,24.4,5.6c9.3,1.4,18.6,2.1,28,2.1
			c3.2,0,6.4-0.1,9.5-0.2c12.3,11.2,26.6,19.9,42.2,25.7c17.2,6.5,35.5,9.7,53.9,9.7c8,0,16.1-0.6,24-1.8c7-1.1,13.9-2.6,20.6-4.7
			l42.2,24.6c2.7,1.6,6.3,0.7,7.9-2.1c0.7-1.1,0.9-2.5,0.7-3.8l-6.3-41.7c11.2-8.7,20.5-19.6,27.4-32c7-12.7,10.7-26.9,10.7-41.4
			C380.4,190.4,370,166.9,352.1,150z M147.8,271.3c-8.8,0-17.5-0.7-26.2-2c-8.5-1.3-16.9-3.3-25.1-5.9c-1.6-0.5-3.2-0.3-4.6,0.5
			l-41.6,24.2l6.2-40.7c0.4-2.1-0.5-4.3-2.2-5.6c-13-9.6-23.8-21.9-31.7-36c-7.2-13-10.9-27.6-11-42.5c0-29.6,15-56.4,39.4-76
			c27.8-21.3,61.9-32.5,96.8-32c35-0.5,69.1,10.7,96.8,32c12.4,9.9,39.4,36,39.4,74.5c0,34.4-18.7,59.3-35.5,74
			c-17.1,14.4-37.3,24.7-59,30.1C175.9,269.1,161.9,270.9,147.8,271.3z M359.8,250.9L359.8,250.9c-6.7,12-15.8,22.4-26.8,30.4
			c-1.8,1.3-2.7,3.4-2.4,5.6l5,33.1l-34-20c-1.4-0.8-3.1-1-4.6-0.5c-7,2.2-14.1,3.9-21.3,5c-7.4,1.1-14.8,1.7-22.2,1.7
			c-17,0.1-33.9-2.9-49.8-8.9c-10.8-4-20.9-9.6-30.1-16.4c16.9-2.8,33.4-7.7,49.2-14.5c12.2-5.6,23.4-12.9,33.5-21.7
			c13.6-12,39.5-39.5,39.5-82.8c-0.5-11.6-2.7-23-6.6-33.9c20.6,5,39.6,15.4,54.9,30.1c15.7,14.8,24.8,35.3,25.2,56.9
			C369,227.6,365.8,239.9,359.8,250.9z"/>
	</g>
</g>
<g>
	<g>
		<circle cx="82" cy="167.3" r="10.2" stroke="" fill=""/>
	</g>
</g>
<g>
	<g>
		<circle cx="213.6" cy="167.3" r="10.2" stroke="" fill=""/>
	</g>
</g>
<g>
	<g>
		<circle cx="147.8" cy="167.3" r="10.2" stroke="" fill=""/>
	</g>
</g>
</svg>
