<svg fill="" xmlns="http://www.w3.org/2000/svg" viewBox="0 0 512 512">
<g>
	<g>
		<path d="M424.5,82.7c-3.4-4.4-9.7-5.2-14.1-1.8c-4.4,3.4-5.2,9.7-1.8,14.1c26.3,34,40.3,74.8,40.3,118v29.4c-3-1-6.3-1.6-9.6-1.6
			h-27.7c-2.9-10.4-12.4-18-23.7-18h-27.5c-13.5,0-24.5,11-24.5,24.5V379c0,13.5,11,24.5,24.5,24.5h27.5c1.3,0,2.6-0.1,3.8-0.3
			c-4.8,37.7-37,66.9-76,66.9h-5.3c-2.5-12.4-13.4-21.8-26.6-21.8h-30.1c-14.9,0-27.1,12.2-27.1,27.1v9.5
			c0,14.9,12.2,27.1,27.1,27.1h30.1c13.1,0,24.1-9.4,26.6-21.8h5.3c53.3,0,96.7-43.4,96.7-96.7c0-2.1-0.6-4-1.7-5.6
			c0.3-0.8,0.6-1.6,0.8-2.4h27.7l0,0c16.4,0,29.7-13.3,29.7-29.7V276v-63C469,165.4,453.6,120.3,424.5,82.7z M290.9,484.9
			L290.9,484.9c0,3.9-3.2,7-7,7h-30.1c-3.9,0-7-3.2-7-7v-9.5c0-3.9,3.2-7,7-7h30.1c3.9,0,7,3.2,7,7V484.9z M392.4,250.9v124.6v3.5
			c0,2.5-2,4.5-4.5,4.5h-27.5c-2.5,0-4.5-2-4.5-4.5V247.3c0-2.5,2-4.5,4.5-4.5h27.5c2.5,0,4.5,2,4.5,4.5V250.9z M448.9,276v79.8
			c0,5.3-4.3,9.6-9.6,9.6h-26.8V260.9h26.8c5.3,0,9.6,4.3,9.6,9.6V276z"/>
	</g>
</g>
<g>
	<g>
		<path d="M380,39.8C343.7,13.8,300.8,0,256,0c-56.9,0-110.4,22.2-150.6,62.4C65.2,102.6,43,156.1,43,213v63v79.8
			c0,16.4,13.3,29.7,29.7,29.7h27.7c2.9,10.4,12.4,18.1,23.7,18.1h27.5c13.5,0,24.5-11,24.5-24.5V247.3c0-13.5-11-24.5-24.5-24.5
			h-27.5c-11.3,0-20.8,7.7-23.7,18H72.7c-3.4,0-6.6,0.6-9.6,1.6V213c0-51.5,20.1-100,56.5-136.4C156,40.1,204.5,20.1,256,20.1
			c40.6,0,79.4,12.5,112.3,36.1c4.5,3.2,10.8,2.2,14-2.3C385.6,49.3,384.5,43.1,380,39.8z M119.6,375.4V250.9v-3.5
			c0-2.5,2-4.5,4.5-4.5h27.5c2.5,0,4.5,2,4.5,4.5V379c0,2.5-2,4.5-4.5,4.5h-27.5c-2.5,0-4.5-2-4.5-4.5
			C119.6,379,119.6,375.4,119.6,375.4z M72.7,260.9h26.8v104.5H72.7c-5.3,0-9.6-4.3-9.6-9.6V276v-5.5
			C63.1,265.2,67.4,260.9,72.7,260.9z"/>
	</g>
</g>
<g>
	<g>
		<path d="M396.2,56.2c-12.9,0-12.9,20.1,0,20.1C409.1,76.3,409.2,56.2,396.2,56.2z"/>
	</g>
</g>
</svg>
