<svg fill="" class="icon" xmlns="http://www.w3.org/2000/svg" viewBox="0 0 512 512">
<g>
	<g>
		<path d="M137.8,392.4h-15.3c-5.5,0-10,4.5-10,10v30.7v32.9c0,5.5,4.5,10,10,10c5.5,0,10-4.5,10-10v-22.8h5.3
			c14,0,25.4-11.4,25.4-25.4C163.2,403.7,151.8,392.4,137.8,392.4z M137.8,423h-5.3v-10.6h5.3c2.9,0,5.3,2.4,5.3,5.3
			S140.7,423,137.8,423z"/>
	</g>
</g>
<g>
	<g>
		<path d="M203.8,442.1c10.7-3,18.5-12.8,18.5-24.4c0-14-11.4-25.4-25.4-25.4h-15.3c-5.5,0-10,4.5-10,10v30.7v32.9
			c0,5.5,4.5,10,10,10s10-4.5,10-10v-7.4l13.3,14.2c2,2.1,4.7,3.2,7.3,3.2c2.5,0,4.9-0.9,6.8-2.7c4.1-3.8,4.3-10.1,0.5-14.2
			L203.8,442.1z M196.9,423h-5.3v-10.6h5.3c2.9,0,5.3,2.4,5.3,5.3C202.2,420.6,199.8,423,196.9,423z"/>
	</g>
</g>
<g>
	<g>
		<path d="M271.3,444.2c5.5,0,10-4.5,10-10s-4.5-10-10-10h-20.6v-11.7h20.6l0,0c5.5,0,10-4.5,10-10c0-5.5-4.5-10-10-10h-30.7
			c-5.5,0-10,4.5-10,10v63.5c0,5.5,4.5,10,10,10h30.7c5.5,0,10-4.5,10-10s-4.5-10-10-10h-20.6v-11.7L271.3,444.2L271.3,444.2z"/>
	</g>
</g>
<g>
	<g>
		<path d="M315.1,423.7c-2.9,0-5.3-2.4-5.3-5.3c0-2.9,2.4-5.3,5.3-5.3c2.1,0,4,1.3,4.9,3.2c2.2,5.1,8.1,7.5,13.2,5.3
			c5.1-2.2,7.5-8.1,5.3-13.2c-4-9.4-13.2-15.5-23.4-15.5c-14,0-25.4,11.4-25.4,25.4c0,14,11.4,25.4,25.4,25.4c2.9,0,5.3,2.4,5.3,5.3
			c0,2.9-2.4,5.3-5.3,5.3c-2.3,0-4.3-1.4-5-3.6c-1.8-5.3-7.4-8.1-12.7-6.4c-5.3,1.8-8.1,7.4-6.4,12.7c3.5,10.4,13.1,17.3,24.1,17.3
			c14,0,25.4-11.4,25.4-25.4C340.5,435.1,329.1,423.7,315.1,423.7z"/>
	</g>
</g>
<g>
	<g>
		<path d="M374.2,423.7c-2.9,0-5.3-2.4-5.3-5.3c0-2.9,2.4-5.3,5.3-5.3c2.1,0,4,1.3,4.9,3.2c2.2,5.1,8.1,7.5,13.2,5.3
			c5.1-2.2,7.5-8.1,5.3-13.2c-4-9.4-13.2-15.5-23.4-15.5c-14,0-25.4,11.4-25.4,25.4c0,14,11.4,25.4,25.4,25.4c2.9,0,5.3,2.4,5.3,5.3
			c0,2.9-2.4,5.3-5.3,5.3c-2.3,0-4.3-1.4-5-3.6c-1.8-5.3-7.4-8.1-12.7-6.4c-5.3,1.8-8.1,7.4-6.4,12.7c3.5,10.4,13.1,17.3,24.1,17.3
			c14,0,25.4-11.4,25.4-25.4C399.6,435.1,388.2,423.7,374.2,423.7z"/>
	</g>
</g>
<g>
	<g>
		<path d="M387.1,44.5h-92.7v-6.1c0-10.3-4-19.9-11.2-27.1C275.9,4,266.3,0,256,0c-21.2,0-38.4,17.2-38.4,38.4v6.1h-92.8
			c-37.9,0-68.6,30.8-68.6,68.6v330.2c0,37.9,30.8,68.6,68.6,68.6h262.3c37.9,0,68.6-30.8,68.6-68.6V113.1
			C455.8,75.3,425,44.5,387.1,44.5z M237.7,38.4c0-10.1,8.2-18.3,18.3-18.3c4.9,0,9.5,1.9,13,5.4s5.4,8.1,5.4,13v41h-36.6
			L237.7,38.4L237.7,38.4z M227.7,99.4h56.7h25.3v18.3H202.4V99.4H227.7z M435.7,443.4c0,26.8-21.8,48.6-48.6,48.6H124.9
			c-26.8,0-48.6-21.8-48.6-48.6V113.1c0-26.8,21.8-48.6,48.6-48.6h92.8v14.8h-25.3c-5.5,0-10,4.5-10,10v38.4c0,5.5,4.5,10,10,10
			h127.3c5.5,0,10-4.5,10-10V89.4c0-5.5-4.5-10-10-10h-25.3V64.6h92.7c26.8,0,48.6,21.8,48.6,48.6L435.7,443.4L435.7,443.4z"/>
	</g>
</g>
<g>
	<g>
		<path d="M286.8,261.5c7.4-7.7,11.9-18.1,11.9-29.6c0-23.6-19.2-42.7-42.7-42.7s-42.7,19.2-42.7,42.7c0,11.5,4.5,21.9,11.9,29.6
			c-24.6,11.6-41.7,36.7-41.7,65.6c0,5.5,4.5,10,10,10h125c5.5,0,10-4.5,10-10C328.5,298.1,311.5,273.1,286.8,261.5z M256,209.3
			c12.5,0,22.7,10.2,22.7,22.6c0,12.5-10.2,22.7-22.7,22.7c-12.5,0-22.7-10.2-22.7-22.7C233.3,219.4,243.5,209.3,256,209.3z
			 M204.5,317.1c4.7-24.1,26-42.4,51.5-42.4c25.5,0,46.8,18.3,51.5,42.4L204.5,317.1L204.5,317.1z"/>
	</g>
</g>
<g>
	<g>
		<path d="M371.7,153.8H140.3c-5.5,0-10,4.5-10,10v201.6c0,5.5,4.5,10,10,10h231.3c5.5,0,10-4.5,10-10V163.8
			C381.7,158.3,377.2,153.8,371.7,153.8z M361.6,355.4H150.4V173.9h211.2L361.6,355.4L361.6,355.4z"/>
	</g>
</g>
<g>
	<g>
		<path d="M409.6,186.4c-5.5,0-10,4.5-10,10V258c0,5.5,4.5,10,10,10s10-4.5,10-10v-61.6C419.6,190.9,415.1,186.4,409.6,186.4z"/>
	</g>
</g>
<g>
	<g>
		<path d="M409.6,157.5c-12.9,0-12.9,20.1,0,20.1C422.5,177.5,422.5,157.5,409.6,157.5z"/>
	</g>
</g>
</svg>
