<svg fill="" xmlns="http://www.w3.org/2000/svg" viewBox="0 0 380 380">
<g>
	<g>
		<circle cx="196.6" cy="118.1" r="7.5" stroke="" fill=""/>
	</g>
</g>
<g>
	<g>
		<circle cx="245.2" cy="118.1" r="7.5" stroke="" fill=""/>
	</g>
</g>
<g>
	<g>
		<circle cx="293.7" cy="118.1" r="7.5" stroke="" fill=""/>
	</g>
</g>
<g>
	<g>
		<path d="M205.2,320.9h-29.7c-3.2,0-5.8,2.6-5.8,5.8s2.6,5.8,5.8,5.8h29.7c3.2,0,5.8-2.6,5.8-5.8S208.4,320.9,205.2,320.9z"/>
	</g>
</g>
<g>
	<g>
		<path d="M378.7,304.2l0-0.2c-1.2-1.2-2.9-2-4.7-2h-7.7V129.7c0-5.1-1.4-10.1-4-14.6c-2-3.6-4.7-6.8-8-9.3
			c-4.2-20-15.4-37.8-31.6-50.2C300.4,38.5,273,29.4,245,29.8c-28.1-0.4-55.5,8.7-77.7,25.8c-14.6,11.2-25.2,26.8-30.3,44.4h-93
			c-16.3,0.1-29.5,13.3-29.6,29.6v172.5H6.6c-1.8,0-3.4,0.7-4.7,2c-1.2,1.2-2,2.9-2,4.7c0.1,23.1,18.8,41.9,42,42h296.7
			c23.1-0.1,41.9-18.8,42-42C380.6,307.1,379.9,305.4,378.7,304.2z M354.8,129.6v172.6h-12.9V162.5c0,0,4.6-7.8,7.6-14
			C352.1,142.4,353.9,136.1,354.8,129.6z M146.9,107.3h0.1c0,0,0-0.4,0-0.5c3.9-16.8,13.6-31.7,27.3-42.1
			c20.2-15.5,45.1-23.7,70.5-23.3c25.5-0.4,50.3,7.8,70.5,23.3c14.7,11.1,24.7,27.4,27.8,45.6v1.3v0.2c0.3,2.3,0.4,4.5,0.5,6.8
			c0,0.3,0,0.6,0,1c-0.1,13.6-4.4,26.8-12.4,37.8c-8.6,12-29.1,34.7-75,39.6c-10.2,0.6-20.4,0.3-30.6-0.9c0,0-13.6-3-18.1-4.2
			c-0.8-0.3-1.7-0.4-2.6-0.3c-0.8,0.1-1.6,0.3-2.3,0.8l-28,16.2l4-26.9c0.1-1,0-2-0.3-3c-0.4-0.8-0.9-1.5-1.4-2.1
			c-6.1-5.4-11.9-11.1-17.4-17c-1-1.3-2.6-3.5-3.7-5.3c-3.7-5.8-6.5-12.1-8.2-18.8v-0.4c-0.6-2.1-1-4.2-1.4-6.3c0,0,0-0.3,0-0.5
			C145.4,121.1,145.6,114.1,146.9,107.3z M146.3,160.3c5.9,8.5,12.8,16.3,20.7,23l-5.4,35.5c-0.5,3.2,1.7,6.1,4.9,6.6
			c1.4,0.2,2.8-0.1,4-0.9l36-20.9c5.8,1.7,11.6,3.1,17.6,4c12.1,1.4,24.4,1.6,36.5,0.7c43.6-5.6,62.6-24.8,69.8-32v126H50.3v-152
			c0-8.5,6.9-15.3,15.3-15.3h70.3C138.2,143.8,141.7,152.4,146.3,160.3z M25.9,129.7c0-9.9,8.1-18,18-18h90.8
			c-0.2,2.1-0.3,4.1-0.4,6.2v1.6c0,1.3,0,2.6,0,4H65.6c-14.8,0-26.8,12-26.9,26.8v152H25.9V129.7z M360.2,330.2
			c-5.7,5.7-13.4,8.9-21.4,8.9H42c-14.9,0-27.5-10.8-30-25.4h356.7C367.6,320,364.7,325.7,360.2,330.2z"/>
	</g>
</g>
</svg>
