<?xml version="1.0" encoding="utf-8"?>
<!-- Generator: Adobe Illustrator 22.0.1, SVG Export Plug-In . SVG Version: 6.00 Build 0)  -->
<svg stroke="" fill="" version="1.1" xmlns="http://www.w3.org/2000/svg" xmlns:xlink="http://www.w3.org/1999/xlink" viewBox="0 0 512 412">
<path d="M497.4,152.9c-0.3-1.2-1.1-2.3-2.2-2.8s-2.5-0.5-3.6,0.1l-69.2,35.4c-0.4,0.2-0.7,0.4-1,0.7c-3-0.6-6.2-0.9-9.4-0.9
	c-20.5,0.3-43.1,15.6-55,31.7L278,196.7c-5-1.3-11.2-2.9-17.4-1.7c-6.9,1.3-12.6,5.8-17.1,9.5l-6.8,5.4c-6.3-6-13.3-11.6-22.2-11.5
	c-5.9,0.1-11,3-15.5,5.5c-1.1,0.6-2.2,1.2-3.3,1.8c-10.2,5.3-22.3,7-33.6,4.8l1.4-4.4c0.6-1.9-0.3-3.9-2.1-4.8l-32.3-15.8l1-4.9
	c0.1-0.3,0.1-0.5,0.1-0.8c0-3.6-2.4-5-17.4-9.8c-8.2-2.7-18.2-5.6-24.8-7.6c-3.5-1-6.3-1.9-7.2-2.2l-47.8-16.1
	c-1.2-0.4-2.7-1.1-4.4-1.8c-5.7-2.5-12.9-5.5-18.4-3.8c-8.2,2.6-8.1,11.7-8,17.1c0,0.8,0,1.5,0,2.2L0,264.2
	c-0.1,4.3-0.2,9.7,2.5,14.5c3.2,5.7,9.2,8.5,13.6,10.5l71.3,33.3c1.5,0.7,4,1.8,6.7,1.8c1.2,0,2.4-0.2,3.7-0.8
	c2.9-1.3,4.4-3.9,5.2-6.3l20.5,6.2c0.4,0.1,0.8,0.2,1.2,0.2c1.6,0,3-0.9,3.7-2.4c9,8.4,20.3,14.2,32.4,16.5c-0.3,2.7-0.1,5.4,0.7,8
	c2.7,9.4,12.1,16.2,21.8,16.2c0.9,0,1.9-0.1,2.8-0.2c0.3-0.1,0.7-0.2,1-0.3c0.3,0.4,0.7,0.8,1,1.2c5,5.4,12.4,8.3,19.7,8.3
	c5.5,0,11.1-1.6,15.6-4.9c3.9,3.8,8.8,6.4,14,7.2c1.2,0.2,2.4,0.3,3.5,0.3c6.8,0,13.3-3,17.4-8c4,2.8,8.7,4.2,13.3,4.2
	c4,0,7.9-1.1,11.1-3.4c4-2.9,6.6-8,8-13.6c0.1,0,0.2,0,0.3,0c0.4,0,0.7,0,1.1,0c18.6,0,31.7-9,43.1-18.7c2.2-1.9,4.8-4.5,5.8-8
	c15.9-0.7,31.6-7.3,43.1-18.3c0.3-0.3,0.5-0.6,0.7-0.9c5.6,1.7,11.4,2.5,17.3,2.5c11.3,0,22.8-3.1,32.6-9.5c0.9-0.6,1.7-1.2,2.6-1.8
	c0.3,0.1,0.6,0.1,0.9,0.1c0.4,0,0.8-0.1,1.3-0.2l70.1-23.3c1.7-0.6,2.8-2.2,2.8-4C510.4,231.3,505.5,191.6,497.4,152.9z
	 M496.9,195.7c-0.8,0.2-1.5,0.5-2.1,1.1c-10,10.2-23.8,16.6-38,17.8c-2.6-4.9-5.9-9.6-9.7-13.6c6.9-4.9,15.9-6.6,22.4-7.4
	c2.5-0.3,5-0.6,7.5-0.8c6.3-0.6,12.7-1.3,19-2.9C496.3,191.8,496.6,193.7,496.9,195.7z M498.2,204.8c0.9,6.5,1.7,13,2.4,19.5
	c-13.1-0.6-26.1,2.6-37.4,9.2c-0.6-3.8-1.5-7.5-2.9-11.2C474.3,220.5,487.7,214.3,498.2,204.8z M463.8,242.6
	c10.8-7.4,24.4-11,37.5-10.2c0.5,5.1,0.9,10.2,1.3,15.3c-0.1,0-0.2,0.1-0.3,0.1c-12.1,6.3-26.1,9.6-39.8,9.3
	C463.5,252.3,463.9,247.5,463.8,242.6z M490.6,159.7c1.5,7.3,2.8,14.7,4.1,22.1c-5.8,1.7-12,2.3-18.5,2.9c-2.5,0.2-5.1,0.5-7.7,0.8
	c-7.8,1-18.9,3.1-27.5,9.9c-2.8-2.2-5.9-4.1-9.2-5.7L490.6,159.7z M324,297.8c10.8-2.7,21.2-7.4,30.4-13.5c1.9,3,4,5.8,6.4,8.4
	c-11,1.9-21.6,6.2-31,12.4L324,297.8z M350.7,277.1c-9.3,6.3-20,11-30.9,13.5c-0.5,0.1-0.9,0.3-1.2,0.5L307.1,277
	c4.4,1,8.9,1.5,13.4,1.5c9.8,0,19.5-2.3,28.2-6.8C349.3,273.5,349.9,275.3,350.7,277.1z M352.4,224.4c-6.3,12.1-8.1,26.1-5.8,39.2
	c-12.3,7-27.7,8.7-41.3,4.6c-5.3-1.6-10.3-4.2-14.9-7.4c12-12.9,17.5-31.4,14.5-48.8l47.5,12.3C352.5,224.3,352.5,224.4,352.4,224.4
	z M219.7,233.9c10.8,6.3,18.5,18,20.2,30.4c-3.5,1.5-7.1,2.6-10.8,3.3c-14,2.6-28.8-0.6-40.5-8.6L219.7,233.9z M247.5,260.4
	c-0.7-3.8-1.9-7.5-3.5-11c4.8-2.1,10.6-1.2,14.8,1.9C255.4,254.8,251.6,257.9,247.5,260.4z M266.5,240.8c-0.8,1.5-1.7,2.9-2.7,4.2
	c-6.6-5.2-16.1-6.3-23.8-2.7c-0.8-1.2-1.6-2.3-2.5-3.4c6.1-8.9,16-15.2,26.7-17c11.1-1.8,23,1.3,31.8,8.4c0.2,0.2,0.5,0.3,0.8,0.5
	c-1.8,9.2-6.1,17.9-12.6,24.8c-4.4-4.2-8-9.2-10.6-14.6c-0.7-1.3-2-2.2-3.5-2.3C268.6,238.7,267.2,239.5,266.5,240.8z M248.6,210.7
	c4-3.2,8.5-6.9,13.5-7.8c4.4-0.8,9.2,0.4,13.9,1.6l20.4,5.3c0,0.1,0,0.2,0,0.2c0.9,3.8,1.4,7.7,1.3,11.6
	c-10.1-6.7-22.8-9.6-34.8-7.6c-12.2,2-23.6,9-31,18.9c-1.8-1.6-3.6-3.1-5.6-4.4L248.6,210.7z M95.8,312.5c-0.6,3-1.2,3.7-1.4,3.8
	c-0.3,0.1-1.2,0.1-3.6-1L19.5,282c-4.4-2.1-8.2-4-10-7.1c-1.6-2.9-1.5-6.9-1.4-10.4L10.2,158c0-0.8,0-1.6,0-2.5
	c-0.1-5.6,0.3-8.6,2.4-9.3c0.3-0.1,0.8-0.2,1.2-0.2c3.1,0,8.3,2.2,11.6,3.7c1.8,0.8,3.5,1.5,5,2l47.8,16.1c1,0.3,3.6,1.1,7.5,2.3
	c8.5,2.5,29.4,8.7,36,11.5L95.8,312.5z M121.9,314.7l-17.3-5.2l22.9-115.9l27.3,13.4L121.9,314.7z M255.5,321.6
	c2.6-2.5,5.7-3.2,8.3-3.2c1.4,0,2.7,0.2,3.7,0.4c6.5,1.5,12.4,6.3,14.3,11.7c0.1,0.2,0.1,0.3,0.2,0.5c-0.6,0.2-1.2,0.5-1.6,1
	c-7,7.5-19.5,9.6-28.5,4.8C251.3,332,251.5,325.5,255.5,321.6z M244.4,341.2c-0.6,0-1.2,0.2-1.8,0.5c-5.6,3.3-13.2,3-18.6-0.6
	c-0.3-0.2-0.7-0.4-1.1-0.5c-0.1-0.2-0.2-0.4-0.3-0.5c0,0,0,0,0-0.1c0.1-0.6,0.2-1.2,0.3-1.8c1.2-5.9,4.2-10.5,8.1-12.6
	c3.9-2.1,10.8-1,12.9,1.9C243.2,332.2,243.6,337.1,244.4,341.2z M215.1,336.6c-0.2,1.2-0.4,2.3-0.5,3.5c-7.6,3.3-17.1,2.2-23.6-2.9
	c0,0-0.1,0-0.1-0.1c0.7-1.7,1.7-3.3,2.9-4.6c5.7-6.3,16.4-7.6,23.6-3C216.4,331.7,215.6,334,215.1,336.6z M182.7,335.8
	c-4.1,0-8.1-2.4-9.8-6.1c0-0.1-0.1-0.1-0.1-0.1c1.2-1.3,2.6-2.3,4.2-3c2.1-0.9,4.2-1.2,5.9-0.8c1.6,0.4,3,1.5,3.4,2.8
	c0,0.1,0.1,0.2,0.1,0.2C184.8,331,183.6,333.3,182.7,335.8z M169,343.6c-0.5-1.9-0.6-3.9-0.3-5.9c3.2,3.5,7.8,5.7,12.5,6.1
	c-0.1,3.4,0.4,6.9,1.5,10.2C176.7,353.8,170.7,349.5,169,343.6z M193.9,357.4c-2.8-3.1-4.3-7.3-4.5-11.6c4.8,2.8,10.4,4.3,15.9,4.3
	c3.2,0,6.3-0.5,9.4-1.4c0.5,3.8,1.7,7.5,3.5,10.8c0.1,0.1,0.1,0.2,0.2,0.3C211.1,364.9,199.8,363.9,193.9,357.4z M238.4,365.4
	c-5.3-0.8-10.4-4.6-13.2-9.8c-1-1.8-1.7-3.8-2.2-5.9c3.4,1.6,7.1,2.4,10.9,2.4c4.3,0,8.7-1.1,12.5-3.2c1.5,4.3,3.4,8.1,5.8,11.2
	C249.3,364,243.7,366.2,238.4,365.4z M277.7,359.9c-4.8,3.5-12.1,1.8-16.4-1.9c-3.1-2.7-5.5-6.6-7.2-11.6c2.8,0.8,5.7,1.2,8.6,1.2
	c7.5,0,15.1-2.5,20.9-7.3C283.8,348,282.1,356.7,277.7,359.9z M329.7,328c-11.8,10.1-22.9,16.8-38.1,16.7c0.3-6.2-0.5-12.4-2.1-17
	c-2.9-8-11-14.7-20.1-16.8c-7.5-1.7-14.6,0.1-19.5,4.9c-1.1,1.1-2,2.3-2.8,3.5c-5.7-3.7-14.1-3.9-19.7-0.9c-2,1.1-3.9,2.5-5.5,4.3
	c-8.7-5.6-20.7-5.3-29.4,0.4c-1.8-2.5-4.5-4.4-7.7-5.2c-3.5-0.8-7.2-0.4-11,1.2c-4.9,2.1-8.7,6.1-11,10.9
	c-12.2-2.2-23.5-8.3-31.9-17.4l28.9-94.5c4,0.8,8.1,1.3,12.2,1.3c9.5,0,19.1-2.2,27.5-6.6c1.2-0.6,2.3-1.3,3.5-1.9
	c4-2.3,7.9-4.4,11.8-4.5c5.6-0.1,10.8,4,15.7,8.5l-50.8,41c-0.9,0.8-1.5,1.9-1.5,3.1c0,1.2,0.5,2.4,1.5,3.1
	c14,11.7,33.1,16.6,51.1,13.3c15.7-2.9,29.9-12,39.2-24.9c5.7,8.8,13.7,16.1,23,21c0.1,0.5,0.4,1,0.8,1.5l36.4,44.7
	c1.6,2,3.3,4.2,3.1,5.9C332.8,325.2,331.1,326.8,329.7,328z M339.8,318.2c-1.1-2.2-2.6-4.1-3.7-5.4l-1.1-1.4
	c9.4-6.1,20.2-10,31.4-11.3c0.7-0.1,1.4-0.4,1.9-0.8c2.5,1.8,5.1,3.3,7.9,4.6C366.2,312.5,353.1,317.7,339.8,318.2z M368.6,289
	c-15.7-14.6-19.6-40.8-9-60.9c8.5-16.1,32.1-34.4,52.6-34.7c0.2,0,0.3,0,0.5,0c13.9,0,29.4,9.2,37.5,25.4c0,0,0,0,0,0.1
	c0,1.1,0.6,2.1,1.3,2.8c1.7,4,3,8.4,3.7,13.2c3.3,22.6-7,46.5-25.1,58.3C411.3,305.5,384.3,303.7,368.6,289z M449.3,286.3
	c4.9-6.3,8.7-13.5,11.2-21.2c1.2,0,2.4,0.1,3.6,0.1c13.4,0,27-3.1,39.1-8.8c0.2,3.9,0.4,7.9,0.6,11.8L449.3,286.3z"/>
<path d="M432.1,226.2c-5.9-7-14-10.5-22.4-9.6c-10.5,1.1-20.5,6.9-26.7,15.5c-5.3,7.4-7.2,16.1-5.4,24.6c2.5,11.4,12,20.4,23.1,21.9
	c1.2,0.2,2.4,0.2,3.5,0.2c6.6,0,13.6-2.4,19.9-7c6.9-5,11.9-11.8,14-19C440.7,244,438.4,233.8,432.1,226.2z M430.4,250.6
	c-1.7,5.6-5.6,10.8-11,14.8c-5.7,4.2-12,6-17.6,5.3c-7.7-1-14.6-7.6-16.3-15.6c-1.7-8,1.3-14.3,4.1-18.2c4.8-6.6,12.8-11.3,21-12.2
	c5.7-0.6,11.3,1.8,15.4,6.8C430.5,237,432.3,244.3,430.4,250.6z"/>
<path d="M79.1,252.3c-6.3-4.7-15-5-22.3-1c-7.1,4-11.1,11.2-10.3,18.8c0.9,9.8,9.9,17.9,19.8,17.9c0.1,0,0.3,0,0.4,0
	c9.9-0.2,18.7-8.5,19.7-18.4C87.1,262.9,84.3,256.1,79.1,252.3z M78.5,268.7c-0.6,5.9-6,11-11.9,11.2c-5.7,0.2-11.5-4.9-12-10.6
	c-0.4-4.5,1.9-8.6,6.3-11c2.1-1.2,4.4-1.8,6.7-1.8c2.5,0,4.9,0.7,6.8,2.2C77.2,260.9,78.8,264.9,78.5,268.7z"/>
</svg>
