<svg fill="" xmlns="http://www.w3.org/2000/svg" viewBox="0 0 512 512">
<g>
	<g>
		<path d="M486.4,128h-1.5c2.8-7.8,1.6-16.5-3.2-23.3c-4.8-6.8-12.6-10.8-20.9-10.8h-10c2.8-7.8,1.6-16.5-3.2-23.3
			S435,59.7,426.7,59.7h-93.9c-20.5,0-40.6,5.6-58.2,16.1c-10.8,6.3-23.2,9.6-35.8,9.5h-25.5V68.3c0-8.3-4-16.1-10.8-20.9
			s-15.5-6-23.3-3.2V25.6c0-14.1-11.5-25.6-25.6-25.6C139.5,0,128,11.5,128,25.6v1.5c-7.8-2.8-16.5-1.6-23.3,3.2
			S93.9,42.9,93.9,51.2v10c-7.8-2.8-16.5-1.6-23.3,3.2C63.8,69.2,59.7,77,59.7,85.3v93.9c0,20.5,5.6,40.6,16.1,58.2
			c6.3,10.8,9.6,23.2,9.5,35.8v25.5H68.3c-8.3,0-16.1,4-20.9,10.8s-6,15.5-3.2,23.3H25.6C11.5,332.8,0,344.3,0,358.4
			S11.5,384,25.6,384h1.5c-2.8,7.8-1.6,16.5,3.2,23.3s12.6,10.8,20.9,10.8h10c-2.8,7.8-1.6,16.5,3.2,23.3
			c4.8,6.8,12.6,10.8,20.9,10.8h93.9c20.5,0,40.6-5.6,58.2-16.1c10.8-6.3,23.2-9.6,35.8-9.5h25.5v17.1c0,8.3,4,16.1,10.8,20.9
			s15.5,6,23.3,3.2v18.5c0,14.1,11.5,25.6,25.6,25.6s25.6-11.5,25.6-25.6v-1.5c7.8,2.8,16.5,1.6,23.3-3.2
			c6.8-4.8,10.8-12.6,10.8-20.9v-10c7.8,2.8,16.5,1.6,23.3-3.2c6.8-4.8,10.8-12.6,10.8-20.9v-93.9c0-20.5-5.6-40.6-16.1-58.2
			c-6.3-10.8-9.6-23.2-9.5-35.8v-25.5h17.1c8.3,0,16.1-4,20.9-10.8s6-15.5,3.2-23.3h18.5c14.1,0,25.6-11.5,25.6-25.6
			C512,139.5,500.5,128,486.4,128z M76.8,179.2V85.3c0-4.7,3.8-8.5,8.5-8.5s8.5,3.8,8.5,8.5v59.7c0,4.7,3.8,8.5,8.5,8.5
			s8.5-3.8,8.5-8.5V51.2c0-4.7,3.8-8.5,8.5-8.5s8.5,3.8,8.5,8.5v93.9c0,4.7,3.8,8.5,8.5,8.5s8.5-3.8,8.5-8.5V25.6
			c0-4.7,3.8-8.5,8.5-8.5c4.7,0,8.5,3.8,8.5,8.5v119.5c0,4.7,3.8,8.5,8.5,8.5s8.5-3.8,8.5-8.5V68.3c0-4.7,3.8-8.5,8.5-8.5
			s8.5,3.8,8.5,8.5v128c0,4.7,3.8,8.5,8.5,8.5h16.5c-1.8,14.9-9.3,28.5-21,38c-7.9,6.5-12.6,16.2-12.6,26.5v29.3h-85.3v-25.5
			c0.1-15.6-4-31-11.9-44.5C81.5,213.7,76.8,196.6,76.8,179.2z M238.4,204.8h4.3c5.2,0.1,10.1,2.5,13.4,6.5
			c12.9,15.4,31.2,25.1,51.1,27v4.3c-0.1,5.2-2.5,10.1-6.5,13.4c-15.4,12.9-25.1,31.2-27,51.1h-4.3c-5.2-0.1-10.1-2.5-13.4-6.5
			c-12.9-15.4-31.2-25.1-51.1-27v-4.3c0.1-5.2,2.5-10.1,6.5-13.4C226.7,243.1,236.4,224.7,238.4,204.8z M298.7,409.6h-25.5
			c-15.6-0.1-31,4-44.5,11.9c-14.9,9-32,13.7-49.5,13.7H85.3c-4.7,0-8.5-3.8-8.5-8.5s3.8-8.5,8.5-8.5h59.7c4.7,0,8.5-3.8,8.5-8.5
			s-3.8-8.5-8.5-8.5H51.2c-4.7,0-8.5-3.8-8.5-8.5c0-4.7,3.8-8.5,8.5-8.5h93.9c4.7,0,8.5-3.8,8.5-8.5s-3.8-8.5-8.5-8.5H25.6
			c-4.7,0-8.5-3.8-8.5-8.5s3.8-8.5,8.5-8.5h119.5c4.7,0,8.5-3.8,8.5-8.5s-3.8-8.5-8.5-8.5H68.3c-4.7,0-8.5-3.8-8.5-8.5
			s3.8-8.5,8.5-8.5h128c4.7,0,8.5-3.8,8.5-8.5v-16.5c14.9,1.8,28.5,9.3,38,21c6.5,7.9,16.2,12.6,26.5,12.6h29.3L298.7,409.6
			L298.7,409.6z M435.2,332.8v93.9c0,4.7-3.8,8.5-8.5,8.5s-8.5-3.8-8.5-8.5v-59.7c0-4.7-3.8-8.5-8.5-8.5s-8.5,3.8-8.5,8.5v93.9
			c0,4.7-3.8,8.5-8.5,8.5c-4.7,0-8.5-3.8-8.5-8.5v-93.9c0-4.7-3.8-8.5-8.5-8.5s-8.5,3.8-8.5,8.5v119.5c0,4.7-3.8,8.5-8.5,8.5
			s-8.5-3.8-8.5-8.5V366.9c0-4.7-3.8-8.5-8.5-8.5s-8.5,3.8-8.5,8.5v76.8c0,4.7-3.8,8.5-8.5,8.5s-8.5-3.8-8.5-8.5v-128
			c0-4.7-3.8-8.5-8.5-8.5h-16.5c1.8-14.9,9.3-28.5,21-38c7.9-6.5,12.6-16.2,12.6-26.5v-29.3h85.3v25.5c-0.1,15.6,4,31,11.9,44.5
			C430.5,298.3,435.2,315.4,435.2,332.8z M486.4,162.1H366.9c-4.7,0-8.5,3.8-8.5,8.5s3.8,8.5,8.5,8.5h76.8c4.7,0,8.5,3.8,8.5,8.5
			s-3.8,8.5-8.5,8.5h-128c-4.7,0-8.5,3.8-8.5,8.5v16.5c-14.9-1.8-28.5-9.3-38-21c-6.5-7.9-16.2-12.6-26.5-12.6h-29.3v-85.3h25.5
			c15.6,0.1,31-4,44.5-11.9c14.9-9,32-13.7,49.5-13.7h93.9c4.7,0,8.5,3.8,8.5,8.5s-3.8,8.5-8.5,8.5h-59.7c-4.7,0-8.5,3.8-8.5,8.5
			s3.8,8.5,8.5,8.5h93.9c4.7,0,8.5,3.8,8.5,8.5s-3.8,8.5-8.5,8.5h-93.9c-4.7,0-8.5,3.8-8.5,8.5s3.8,8.5,8.5,8.5h119.5
			c4.7,0,8.5,3.8,8.5,8.5C494.9,158.3,491.1,162.1,486.4,162.1z"/>
	</g>
</g>
</svg>
